<?xml version="1.0" encoding="utf-8"?>
<!-- Generator: Adobe Illustrator 15.1.0, SVG Export Plug-In . SVG Version: 6.00 Build 0)  -->
<!DOCTYPE svg PUBLIC "-//W3C//DTD SVG 1.0//EN" "http://www.w3.org/TR/2001/REC-SVG-20010904/DTD/svg10.dtd">
<svg version="1.0" id="Layer_1" xmlns="http://www.w3.org/2000/svg" xmlns:xlink="http://www.w3.org/1999/xlink" x="0px" y="0px"
	 width="600px" height="500px" viewBox="0 0 600 500" enable-background="new 0 0 600 500" xml:space="preserve">
<g id="element1">
	
		<rect x="60" y="30" fill="none" stroke="#000000" stroke-width="0.5" stroke-miterlimit="10" width="40.5" height="23.52"/>
	
		<ellipse fill="none" stroke="#000000" stroke-width="0.5" stroke-miterlimit="10" cx="75" cy="42" rx="9.681" ry="7.777"/>
	
		<ellipse fill="none" stroke="#000000" stroke-width="0.5" stroke-miterlimit="10" cx="85" cy="42" rx="9.158" ry="7.777"/>
	
		<ellipse fill="#E60012" stroke="#000000" stroke-width="0.25" stroke-miterlimit="10" cx="80" cy="42" rx="3.5" ry="6"/>
</g>
<g id="element2" >
	
		<rect x="110" y="30" fill="none" stroke="#000000" stroke-width="0.5" stroke-miterlimit="10" width="44.063" height="23.534"/>
	
		<ellipse fill="#E60012" stroke="#000000" stroke-width="0.5" stroke-miterlimit="10" cx="136" cy="42" rx="10.533" ry="7.781"/>
	
		<ellipse fill="#E60012" stroke="#000000" stroke-width="0.5" stroke-miterlimit="10" cx="126" cy="42" rx="9.964" ry="7.781"/>
	
		<ellipse fill="none" stroke="#000000" stroke-width="0.5" stroke-miterlimit="10" cx="136" cy="42" rx="10.517" ry="7.52"/>
</g>
<g id="element4">
		<rect x="160" y="30" fill="none" stroke="#000000" stroke-width="0.5" stroke-miterlimit="10" width="44.063" height="23.534"/>
	
		<ellipse fill="#E60012" stroke="#000000" stroke-width="0.5" stroke-miterlimit="10" cx="190" cy="42" rx="10.533" ry="7.781"/>
	
		<ellipse fill="white" stroke="#000000" stroke-width="0.5" stroke-miterlimit="10" cx="175" cy="42" rx="9.964" ry="7.781"/>
	
		<ellipse fill="none" stroke="#000000" stroke-width="0.5" stroke-miterlimit="10" cx="190" cy="42" rx="10.517" ry="7.52"/>
</g>
<g id="element5">
		<rect x="210" y="30" fill="none" stroke="#000000" stroke-width="0.5" stroke-miterlimit="10" width="44.063" height="23.534"/>
		
		<ellipse fill="white" stroke="#000000" stroke-width="0.5" stroke-miterlimit="10" cx="230" cy="42" rx="13" ry="9"/>
	
		<ellipse fill="none" stroke="#000000" stroke-width="0.5" stroke-miterlimit="10" cx="240" cy="42" rx="8" ry="6"/>
		<ellipse fill="#E60012" stroke="#000000" stroke-width="0.5" stroke-miterlimit="10" cx="225" cy="42" rx="5" ry="4"/>

</g>
<g id="element6">
		<rect x="260" y="30" fill="none" stroke="#000000" stroke-width="0.5" stroke-miterlimit="10" width="44.063" height="23.534"/>
		
		<ellipse fill="white" stroke="#000000" stroke-width="0.5" stroke-miterlimit="10" cx="280" cy="42" rx="13" ry="9"/>
	
		<ellipse fill="#E60012" stroke="#000000" stroke-width="0.5" stroke-miterlimit="10" cx="298" cy="42" rx="4" ry="3"/>

</g>
<g id="element7">
	
		<rect x="350" y="30" fill="none" stroke="#000000" stroke-width="0.5" stroke-miterlimit="10" width="41.298" height="22.885"/>
	
		<ellipse fill="#E60012" stroke="#000000" stroke-width="0.5" stroke-miterlimit="10" cx="370" cy="42" rx="10.468" ry="4.497"/>
		<ellipse fill="white" stroke="#000000" stroke-width="0.5" stroke-miterlimit="10" cx="370" cy="42" rx="9" ry="3"/>

</g>
<g id="element8">	
		<rect x="455" y="30" fill="none" stroke="#000000" stroke-width="0.5" stroke-miterlimit="10" width="44.66" height="22.566"/>
	        <rect x="470" y="40" fill="#E60012" width="16.326" height="2.394"/>	
		<rect x="477" y="35"  fill="#E60012" width="2.688" height="13.184"/>
</g>
<g id="element9">
		<rect x="530" y="30" fill="none" stroke="#000000" stroke-width="0.5" stroke-miterlimit="10" width="44.66" height="22.566"/>
	        <rect x="543" y="40" fill="#E60012" width="16.326" height="2.394"/>	
</g>

</svg>
