<?xml version="1.0" encoding="utf-8"?>
<!-- Generator: Adobe Illustrator 15.1.0, SVG Export Plug-In . SVG Version: 6.00 Build 0)  -->
<!DOCTYPE svg PUBLIC "-//W3C//DTD SVG 1.1//EN" "http://www.w3.org/Graphics/SVG/1.1/DTD/svg11.dtd">
<svg version="1.1" id="Layer_1" xmlns="http://www.w3.org/2000/svg" xmlns:xlink="http://www.w3.org/1999/xlink" x="0px" y="0px"
	 width="40px" height="40px" viewBox="0 0 40 40" enable-background="new 0 0 40 40" xml:space="preserve">
<line fill="none" stroke="#000000" stroke-width="0.5" stroke-miterlimit="10" x1="1.522" y1="17.704" x2="5.804" y2="18.196"/>
<line fill="none" stroke="#000000" stroke-width="0.5" stroke-miterlimit="10" x1="5.804" y1="18.196" x2="6.47" y2="16.244"/>
<line fill="none" stroke="#000000" stroke-width="0.5" stroke-miterlimit="10" x1="6.47" y1="16.244" x2="7.851" y2="16.244"/>
<line fill="none" stroke="#000000" stroke-width="0.5" stroke-miterlimit="10" x1="0.476" y1="11.106" x2="4.282" y2="14.056"/>
<line fill="none" stroke="#000000" stroke-width="0.5" stroke-miterlimit="10" x1="4.282" y1="14.056" x2="6.993" y2="14.905"/>
<line fill="none" stroke="#000000" stroke-width="0.5" stroke-miterlimit="10" x1="4.282" y1="14.056" x2="3.235" y2="15.483"/>
<line fill="none" stroke="#000000" stroke-width="0.5" stroke-miterlimit="10" x1="3.235" y1="15.483" x2="0.476" y2="16.244"/>
<line fill="none" stroke="#000000" stroke-width="0.5" stroke-miterlimit="10" x1="3.758" y1="8.014" x2="6.47" y2="9.917"/>
<line fill="none" stroke="#000000" stroke-width="0.5" stroke-miterlimit="10" x1="3.758" y1="8.014" x2="0" y2="10.345"/>
<line fill="none" stroke="#000000" stroke-width="0.5" stroke-miterlimit="10" x1="6.47" y1="9.917" x2="9.895" y2="6.807"/>
<line fill="none" stroke="#000000" stroke-width="0.5" stroke-miterlimit="10" x1="9.895" y1="6.807" x2="6.137" y2="3.209"/>
<line fill="none" stroke="#000000" stroke-width="0.5" stroke-miterlimit="10" x1="6.137" y1="3.209" x2="1.522" y2="5.778"/>
<line fill="none" stroke="#000000" stroke-width="0.5" stroke-miterlimit="10" x1="8.183" y1="8.362" x2="5.637" y2="5.778"/>
<line fill="none" stroke="#000000" stroke-width="0.5" stroke-miterlimit="10" x1="9.895" y1="6.807" x2="14.923" y2="3.209"/>
<line fill="none" stroke="#000000" stroke-width="0.5" stroke-miterlimit="10" x1="12.075" y1="5.008" x2="9.895" y2="1.877"/>
<line fill="none" stroke="#000000" stroke-width="0.5" stroke-miterlimit="10" x1="14.462" y1="8.014" x2="19.6" y2="5.008"/>
<line fill="none" stroke="#000000" stroke-width="0.5" stroke-miterlimit="10" x1="19.6" y1="5.008" x2="22.835" y2="7.586"/>
<line fill="none" stroke="#000000" stroke-width="0.5" stroke-miterlimit="10" x1="16.075" y1="7.07" x2="16.365" y2="3.442"/>
<line fill="none" stroke="#000000" stroke-width="0.5" stroke-miterlimit="10" x1="16.365" y1="3.442" x2="19.125" y2="1.877"/>
<line fill="none" stroke="#000000" stroke-width="0.5" stroke-miterlimit="10" x1="17.745" y1="7.07" x2="20.076" y2="10.345"/>
<line fill="none" stroke="#000000" stroke-width="0.5" stroke-miterlimit="10" x1="17.745" y1="7.07" x2="14.906" y2="7.586"/>
<line fill="none" stroke="#000000" stroke-width="0.5" stroke-miterlimit="10" x1="20.076" y1="10.345" x2="19.125" y2="12.501"/>
<line fill="none" stroke="#000000" stroke-width="0.5" stroke-miterlimit="10" x1="19.125" y1="14.48" x2="21.217" y2="16.244"/>
<line fill="none" stroke="#000000" stroke-width="0.5" stroke-miterlimit="10" x1="19.125" y1="14.48" x2="17.333" y2="14.48"/>
<line fill="none" stroke="#000000" stroke-width="0.5" stroke-miterlimit="10" x1="19.125" y1="12.501" x2="20.52" y2="14.48"/>
<line fill="none" stroke="#000000" stroke-width="0.5" stroke-miterlimit="10" x1="13.986" y1="18.196" x2="13.13" y2="20.502"/>
<line fill="none" stroke="#000000" stroke-width="0.5" stroke-miterlimit="10" x1="13.13" y1="20.502" x2="9.895" y2="20.502"/>
<line fill="none" stroke="#000000" stroke-width="0.5" stroke-miterlimit="10" x1="13.13" y1="20.502" x2="13.986" y2="23.285"/>
<line fill="none" stroke="#000000" stroke-width="0.5" stroke-miterlimit="10" x1="9.895" y1="18.196" x2="6.91" y2="19.955"/>
<line fill="none" stroke="#000000" stroke-width="0.5" stroke-miterlimit="10" x1="6.91" y1="19.955" x2="7.16" y2="23.285"/>
<ellipse fill="none" stroke="#000000" stroke-miterlimit="10" cx="3.829" cy="1.877" rx="1.903" ry="1.877"/>
<g>
	<path fill="#EFD54D" stroke="#000000" stroke-width="0.5" stroke-miterlimit="10" d="M21.926,21.223c0.461-0.46,0.46-1.208,0-1.665
		L17.68,15.31c-0.46-0.459-1.204-0.459-1.663,0l0,0c-0.46,0.459-0.46,1.205,0,1.665l4.246,4.248
		C20.721,21.682,21.467,21.682,21.926,21.223L21.926,21.223z"/>
	
		<linearGradient id="SVGID_1_" gradientUnits="userSpaceOnUse" x1="730.0742" y1="-1132.2402" x2="743.5059" y2="-1132.2402" gradientTransform="matrix(0 -1 -1 0 -1119.9282 748.9204)">
		<stop  offset="0" style="stop-color:#FFFFFF"/>
		<stop  offset="0.2622" style="stop-color:#E1F8FF"/>
		<stop  offset="0.5204" style="stop-color:#CBF4FF"/>
		<stop  offset="0.7697" style="stop-color:#BEF1FF"/>
		<stop  offset="1" style="stop-color:#BAF0FF"/>
	</linearGradient>
	
		<ellipse fill="url(#SVGID_1_)" stroke="#000000" stroke-width="0.5" stroke-miterlimit="10" cx="12.313" cy="12.131" rx="6.611" ry="6.716"/>
</g>
</svg>
