<?xml version="1.0" encoding="utf-8"?>
<!-- Generator: Adobe Illustrator 15.1.0, SVG Export Plug-In . SVG Version: 6.00 Build 0)  -->
<!DOCTYPE svg PUBLIC "-//W3C//DTD SVG 1.1//EN" "http://www.w3.org/Graphics/SVG/1.1/DTD/svg11.dtd">
<svg version="1.1" id="Layer_1" xmlns="http://www.w3.org/2000/svg" xmlns:xlink="http://www.w3.org/1999/xlink" x="0px" y="0px"
	 width="40px" height="40px" viewBox="0 0 40 40" enable-background="new 0 0 40 40" xml:space="preserve">
<g>
	<polyline fill="#CC5E12" stroke="#000000" stroke-miterlimit="10" points="6.289,4.328 8.913,4.328 8.913,3 11.367,3 11.367,4.328 
		12.213,4.328 12.213,5.258 13.906,5.258 13.906,7.516 15.345,7.516 15.345,6.055 16.361,6.055 16.361,7.516 16.361,9.109 
		17.799,9.109 17.799,10.703 16.361,10.703 16.361,13.758 20,13.758 20,15.086 19.492,15.086 19.492,16.082 20,16.082 20,17.078 
		19.492,17.078 19.492,18.738 20,18.738 20,20 11.791,20 11.791,17.908 11.367,17.908 11.367,17.078 10.14,17.078 10.14,17.908 
		8.913,17.908 8.913,17.078 7.39,17.078 7.39,17.908 6.289,17.908 6.289,18.738 5.443,18.738 5.443,20 3.581,20 3.581,18.738 
		2.819,18.738 2.819,17.493 2.058,17.493 2.058,16.082 1.55,16.082 1.55,14.422 2.438,14.422 2.438,8.313 3.2,8.313 3.2,6.785 
		4.512,6.785 4.512,5.258 6.289,5.258 6.289,4.328 6.289,6.055 	"/>
	<polygon fill="#FFFFFF" stroke="#000000" stroke-miterlimit="10" points="9.563,13.814 9.563,14.538 14.505,14.538 14.505,9.618 
		9.563,9.618 9.563,7.736 8.422,7.736 8.422,6.868 5.951,7.013 5.951,13.814 	"/>
</g>
</svg>
