<?xml version="1.0" encoding="utf-8"?>
<!-- Generator: Adobe Illustrator 15.1.0, SVG Export Plug-In . SVG Version: 6.00 Build 0)  -->
<!DOCTYPE svg PUBLIC "-//W3C//DTD SVG 1.1//EN" "http://www.w3.org/Graphics/SVG/1.1/DTD/svg11.dtd">
<svg version="1.1" id="Layer_1" xmlns="http://www.w3.org/2000/svg" xmlns:xlink="http://www.w3.org/1999/xlink" x="0px" y="0px"
	 width="40px" height="40px" viewBox="0 0 40 40" enable-background="new 0 0 40 40" xml:space="preserve">
<linearGradient id="SVGID_1_" gradientUnits="userSpaceOnUse" x1="3.4702" y1="3.5215" x2="18.8275" y2="20.5775">
	<stop  offset="0" style="stop-color:#FFFFFF"/>
	<stop  offset="0.3726" style="stop-color:#FDFDFD"/>
	<stop  offset="0.5069" style="stop-color:#F6F6F6"/>
	<stop  offset="0.6026" style="stop-color:#EBEBEB"/>
	<stop  offset="0.68" style="stop-color:#DADADA"/>
	<stop  offset="0.7463" style="stop-color:#C4C4C4"/>
	<stop  offset="0.805" style="stop-color:#A8A8A8"/>
	<stop  offset="0.8581" style="stop-color:#888888"/>
	<stop  offset="0.9069" style="stop-color:#626262"/>
	<stop  offset="0.9523" style="stop-color:#373737"/>
	<stop  offset="0.9926" style="stop-color:#090909"/>
	<stop  offset="1" style="stop-color:#000000"/>
</linearGradient>
<path fill="url(#SVGID_1_)" stroke="#666666" stroke-miterlimit="10" d="M7.451,22.571c1.338-4.08-3.698-8.208-6.608-11.663
	c1.49-3.854,5.65,0.051,6.315,1.833C6.772,10.89,2.798,5.36,3.558,3.725c1.724-3.709,5.288,3.957,5.32,5.601
	c-0.596-1.336-2.187-8.657,1.345-7.242c1.829,0.732,1.936,6.702,2.013,8.438c-0.024-1.55-1.083-8.441,2.382-6.502
	c1.701,0.951,1.51,6.651,1.489,8.281c0.894-1.7,1.422-4.19,1.555-6.128c6.108-0.738-1.089,14.081-1.01,16.365
	C14.052,21.51,9.945,22.915,7.451,22.571"/>
</svg>
