<?xml version="1.0" encoding="utf-8"?>
<!-- Generator: Adobe Illustrator 15.1.0, SVG Export Plug-In . SVG Version: 6.00 Build 0)  -->
<!DOCTYPE svg PUBLIC "-//W3C//DTD SVG 1.1//EN" "http://www.w3.org/Graphics/SVG/1.1/DTD/svg11.dtd">
<svg version="1.1" id="Layer_1" xmlns="http://www.w3.org/2000/svg" xmlns:xlink="http://www.w3.org/1999/xlink" x="0px" y="0px"
	 width="40px" height="40px" viewBox="0 0 40 40" enable-background="new 0 0 40 40" xml:space="preserve">
<path fill="none" stroke="#000000" stroke-miterlimit="10" d="M-23.5-111.5"/>
<path fill="none" stroke="#000000" stroke-miterlimit="10" d="M-84.5-156.5"/>
<path fill="none" stroke="#000000" stroke-miterlimit="10" d="M40-173.5"/>
<path fill="none" stroke="#000000" stroke-miterlimit="10" d="M-23.5-111.5"/>
<path fill="none" stroke="#000000" stroke-miterlimit="10" d="M-84.5-156.5"/>
<path fill="none" stroke="#000000" stroke-miterlimit="10" d="M40-173.5"/>
<g>
	<ellipse fill="none" stroke="#000000" stroke-miterlimit="10" cx="12.16" cy="10.689" rx="9.812" ry="9.704"/>
	<line fill="none" stroke="#000000" stroke-miterlimit="10" x1="6.065" y1="15.172" x2="6.065" y2="18.293"/>
	<path fill="#FFF200" stroke="#000000" stroke-miterlimit="10" d="M12.161,8.945l-6.095,6.233
		c3.048,2.993,15.314,1.357,15.907-6.233h-0.064h-9.812"/>
	<path fill="#002DEA" stroke="#000000" stroke-miterlimit="10" d="M11.185,0.991c2.835,0,8.034-0.504,10.788,7.954h-9.812
		L11.185,0.991z"/>
	<path fill="none" stroke="#000000" stroke-miterlimit="10" d="M11.185,0.985c2.835,0.174,7.689,0,10.788,7.954"/>
	<path fill="none" stroke="#000000" stroke-miterlimit="10" d="M6.065,15.178"/>
	<path fill="none" stroke="#000000" stroke-miterlimit="10" d="M11.185,0.985"/>
	<path fill="#F90000" stroke="#000000" stroke-miterlimit="10" d="M12.161,8.939l-6.095,6.233h0.106
		c-8.423-9.34,1.307-12.96,5.12-14.192h-0.106l0.976,9.704"/>
</g>
</svg>
