<?xml version="1.0" encoding="utf-8"?>
<!-- Generator: Adobe Illustrator 15.1.0, SVG Export Plug-In . SVG Version: 6.00 Build 0)  -->
<!DOCTYPE svg PUBLIC "-//W3C//DTD SVG 1.1//EN" "http://www.w3.org/Graphics/SVG/1.1/DTD/svg11.dtd">
<svg version="1.1" id="Layer_1" xmlns="http://www.w3.org/2000/svg" xmlns:xlink="http://www.w3.org/1999/xlink" x="0px" y="0px"
	 width="40px" height="40px" viewBox="0 0 40 40" enable-background="new 0 0 40 40" xml:space="preserve">
<g>
	<polygon fill="#050505" stroke="#000000" stroke-width="2" stroke-miterlimit="10" points="0,12.163 3.621,7.255 7.416,12.163 	"/>
	<path fill="#050505" stroke="#000000" stroke-width="2" stroke-miterlimit="10" d="M4.581,12.163c0,3.267,2.644,5.911,5.911,5.911
		v1.875c-4.304,0-7.787-3.482-7.787-7.787"/>
	<polygon fill="#FF0000" stroke="#FF0000" stroke-width="2" stroke-miterlimit="10" points="15.944,0 18.847,5.364 12.792,6.713 	
		"/>
	<path fill="#FF0000" stroke="#FF0000" stroke-width="2" stroke-miterlimit="10" d="M13.997,4.146
		C11.04,2.757,7.522,4.026,6.133,6.983L4.436,6.186c1.83-3.896,6.462-5.568,10.358-3.738"/>
	<polygon fill="#20FF00" stroke="#2BFC00" stroke-width="2" stroke-miterlimit="10" points="18.88,20.306 12.781,20.309 
		14.475,14.34 	"/>
	<path fill="#20FF00" stroke="#2BFC00" stroke-width="2" stroke-miterlimit="10" d="M16.159,16.621
		c2.628-1.941,3.185-5.638,1.244-8.267l1.509-1.114c2.557,3.462,1.825,8.333-1.638,10.89"/>
</g>
</svg>
