<?xml version="1.0" encoding="UTF-8"?>
<!DOCTYPE svg PUBLIC "-//W3C//DTD SVG 1.1//EN" "http://www.w3.org/Graphics/SVG/1.1/DTD/svg11.dtd"><!--created by online dynamicsymbol maker . BY Morven 2014--><svg xmlns="http://www.w3.org/2000/svg" id="SVG" width="500" height="400" viewBox="0 0 500 400" version="1.1"><path d="M153 334C153 334 151 334 151 334C151 339 153 344 156 344C164 344 171 339 171 334C171 322 164 314 156 314C142 314 131 322 131 334C131 350 142 364 156 364C175 364 191 350 191 334C191 311 175 294 156 294C131 294 111 311 111 334C111 361 131 384 156 384C186 384 211 361 211 334C211 300 186 274 156 274" style="stroke:black;fill:white"/><circle cx="250.0" cy="200.0" r="50.0" style="stroke:#1039de;stroke-width:4;fill:#e01de0;"/><rect x="0.0" y="0.0" rx="10.0" ry="10.0" width="50.0" height="80.0" style="stroke:#ff002b;stroke-width:2;fill:#e021e0;" transform="rotate(60.78)"><animate attributeType="CSS" attributeName="stroke" from="#de2ade" to="#1f35c2" dur="2.0" restart="always" repeatCount="indefinite"/><animate attributeType="CSS" attributeName="fill" from="#fa1231" to="#19f505" dur="3.0" restart="always" repeatCount="indefinite"/><animateMotion path="M0 0 ,L150 0,L50 100Z" begin="0s" dur="3s" repeatCount="indefinite"/><animateTransform attributeName="transform" type="scale" dur="3s" from="1" to="0.5s" repeatCount="indefinite"/><animateTransform attributeName="transform" type="rotate" dur="5s" from="0" to="90.0" repeatCount="indefinite"/></rect></svg>
