<?xml version="1.0" encoding="utf-8" standalone="no"?>
<!-- Creator: Esri ArcMap 10.1.0.3035 -->
<!DOCTYPE svg PUBLIC "-//W3C//DTD SVG 1.1//EN"  "http://www.w3.org/Graphics/SVG/1.1/DTD/svg11.dtd">
<svg width="653.24409pt" height="527.24409pt" viewBox="0 0 653.24409 527.24409" enable-background="new 0 0 653.24409 527.24409"
	version="1.1" xmlns="http://www.w3.org/2000/svg" xmlns:xlink="http://www.w3.org/1999/xlink" >
	<g id="__">
		<g id="res1_4m">
			<clipPath id="SVG_CP_1">
				<path d="M0,527.24409L0,0L653.24409,0L653.24409,527.24409L0,527.24409z"/>
			</clipPath>
			<path clip-path="url(#SVG_CP_1)" fill="#8F000E" fill-rule="evenodd" stroke="#000000" stroke-width="0.95993" stroke-miterlimit="10" stroke-linecap="round" stroke-linejoin="round" d="
				M469.40498,156.35439C469.40498,155.22776,468.49171,154.31446,467.36513,154.31446C466.23856,154.31446,465.32529,155.22776
				,465.32529,156.35439C465.32529,157.48101,466.23856,158.39431,467.36513,158.39431C468.49171,158.39431,469.40498,157.48101
				,469.40498,156.35439z"/>
			<path clip-path="url(#SVG_CP_1)" fill="#8F000E" fill-rule="evenodd" stroke="#000000" stroke-width="0.95993" stroke-miterlimit="10" stroke-linecap="round" stroke-linejoin="round" d="
				M481.88405,168.59395C481.88405,167.46733,480.97078,166.55402,479.8442,166.55402C478.71763,166.55402,477.80435,167.46733,
				477.80435,168.59395C477.80435,169.72057,478.71763,170.63387,479.8442,170.63387C480.97078,170.63387,481.88405,169.72057,481.88405,168.59395
				z"/>
			<path clip-path="url(#SVG_CP_1)" fill="#8F000E" fill-rule="evenodd" stroke="#000000" stroke-width="0.95993" stroke-miterlimit="10" stroke-linecap="round" stroke-linejoin="round" d="
				M440.60713,185.15335C440.60713,184.02673,439.69386,183.11342,438.56728,183.11342C437.44071,183.11342,436.52743,184.02673
				,436.52743,185.15335C436.52743,186.27997,437.44071,187.19328,438.56728,187.19328C439.69386,187.19328,440.60713,186.27997
				,440.60713,185.15335z"/>
			<path clip-path="url(#SVG_CP_1)" fill="#8F000E" fill-rule="evenodd" stroke="#000000" stroke-width="0.95993" stroke-miterlimit="10" stroke-linecap="round" stroke-linejoin="round" d="
				M411.32931,187.79326C411.32931,186.66664,410.41604,185.75333,409.28947,185.75333C408.16289,185.75333,407.24962,186.66664
				,407.24962,187.79326C407.24962,188.91988,408.16289,189.83318,409.28947,189.83318C410.41604,189.83318,411.32931,188.91988
				,411.32931,187.79326z"/>
			<path clip-path="url(#SVG_CP_1)" fill="#8F000E" fill-rule="evenodd" stroke="#000000" stroke-width="0.95993" stroke-miterlimit="10" stroke-linecap="round" stroke-linejoin="round" d="
				M397.65033,142.91487C397.65033,141.78825,396.73706,140.87494,395.61049,140.87494C394.48391,140.87494,393.57064,141.78825
				,393.57064,142.91487C393.57064,144.04149,394.48391,144.95479,395.61049,144.95479C396.73706,144.95479,397.65033,144.04149
				,397.65033,142.91487z"/>
			<path clip-path="url(#SVG_CP_1)" fill="#8F000E" fill-rule="evenodd" stroke="#000000" stroke-width="0.95993" stroke-miterlimit="10" stroke-linecap="round" stroke-linejoin="round" d="
				M576.19701,128.0354C576.19701,126.90878,575.28374,125.99548,574.15717,125.99548C573.03059,125.99548,572.11732,126.90878,
				572.11732,128.0354C572.11732,129.16202,573.03059,130.07533,574.15717,130.07533C575.28374,130.07533,576.19701,129.16202,576.19701,128.0354
				z"/>
			<path clip-path="url(#SVG_CP_1)" fill="#8F000E" fill-rule="evenodd" stroke="#000000" stroke-width="0.95993" stroke-miterlimit="10" stroke-linecap="round" stroke-linejoin="round" d="
				M605.23485,96.11655C605.23485,94.98993,604.32158,94.07662,603.195,94.07662C602.06842,94.07662,601.15515,94.98993,601.15515,96.11655
				C601.15515,97.24317,602.06842,98.15648,603.195,98.15648C604.32158,98.15648,605.23485,97.24317,605.23485,96.11655z"/>
			<path clip-path="url(#SVG_CP_1)" fill="#8F000E" fill-rule="evenodd" stroke="#000000" stroke-width="0.95993" stroke-miterlimit="10" stroke-linecap="round" stroke-linejoin="round" d="
				M625.39334,68.03756C625.39334,66.91094,624.48007,65.99763,623.3535,65.99763C622.22692,65.99763,621.31365,66.91094,621.31365,68.03756
				C621.31365,69.16418,622.22692,70.07748,623.3535,70.07748C624.48007,70.07748,625.39334,69.16418,625.39334,68.03756z"/>
			<path clip-path="url(#SVG_CP_1)" fill="#8F000E" fill-rule="evenodd" stroke="#000000" stroke-width="0.95993" stroke-miterlimit="10" stroke-linecap="round" stroke-linejoin="round" d="
				M546.67922,288.58964C546.67922,287.46302,545.76595,286.54971,544.63937,286.54971C543.51279,286.54971,542.59952,287.46302
				,542.59952,288.58964C542.59952,289.71626,543.51279,290.62956,544.63937,290.62956C545.76595,290.62956,546.67922,289.71626
				,546.67922,288.58964z"/>
			<path clip-path="url(#SVG_CP_1)" fill="#8F000E" fill-rule="evenodd" stroke="#000000" stroke-width="0.95993" stroke-miterlimit="10" stroke-linecap="round" stroke-linejoin="round" d="
				M505.64228,276.35008C505.64228,275.22346,504.72901,274.31015,503.60243,274.31015C502.47585,274.31015,501.56258,275.22346
				,501.56258,276.35008C501.56258,277.4767,502.47585,278.39,503.60243,278.39C504.72901,278.39,505.64228,277.4767,505.64228,276.35008
				z"/>
			<path clip-path="url(#SVG_CP_1)" fill="#8F000E" fill-rule="evenodd" stroke="#000000" stroke-width="0.95993" stroke-miterlimit="10" stroke-linecap="round" stroke-linejoin="round" d="
				M526.7607,303.4691C526.7607,302.34248,525.84743,301.42917,524.72085,301.42917C523.59428,301.42917,522.68101,302.34248,522.68101,303.4691
				C522.68101,304.59572,523.59428,305.50903,524.72085,305.50903C525.84743,305.50903,526.7607,304.59572,526.7607,303.4691z"/>
			<path clip-path="url(#SVG_CP_1)" fill="#8F000E" fill-rule="evenodd" stroke="#000000" stroke-width="0.95993" stroke-miterlimit="10" stroke-linecap="round" stroke-linejoin="round" d="
				M482.84398,278.98998C482.84398,277.86336,481.93071,276.95005,480.80413,276.95005C479.67755,276.95005,478.76428,277.86336
				,478.76428,278.98998C478.76428,280.1166,479.67755,281.02991,480.80413,281.02991C481.93071,281.02991,482.84398,280.1166,482.84398,278.98998
				z"/>
			<path clip-path="url(#SVG_CP_1)" fill="#8F000E" fill-rule="evenodd" stroke="#000000" stroke-width="0.95993" stroke-miterlimit="10" stroke-linecap="round" stroke-linejoin="round" d="
				M513.80167,367.06682C513.80167,365.9402,512.8884,365.02689,511.76182,365.02689C510.63524,365.02689,509.72197,365.9402,509.72197,367.06682
				C509.72197,368.19344,510.63524,369.10674,511.76182,369.10674C512.8884,369.10674,513.80167,368.19344,513.80167,367.06682z
				"/>
			<path clip-path="url(#SVG_CP_1)" fill="#8F000E" fill-rule="evenodd" stroke="#000000" stroke-width="0.95993" stroke-miterlimit="10" stroke-linecap="round" stroke-linejoin="round" d="
				M461.96554,327.46824C461.96554,326.34162,461.05227,325.42831,459.92569,325.42831C458.79911,325.42831,457.88584,326.34162
				,457.88584,327.46824C457.88584,328.59486,458.79911,329.50817,459.92569,329.50817C461.05227,329.50817,461.96554,328.59486
				,461.96554,327.46824z"/>
			<path clip-path="url(#SVG_CP_1)" fill="#8F000E" fill-rule="evenodd" stroke="#000000" stroke-width="0.95993" stroke-miterlimit="10" stroke-linecap="round" stroke-linejoin="round" d="
				M478.76428,206.0326C478.76428,204.90598,477.85101,203.99267,476.72444,203.99267C475.59786,203.99267,474.68459,204.90598,
				474.68459,206.0326C474.68459,207.15922,475.59786,208.07253,476.72444,208.07253C477.85101,208.07253,478.76428,207.15922,478.76428,206.0326
				z"/>
			<path clip-path="url(#SVG_CP_1)" fill="#8F000E" fill-rule="evenodd" stroke="#000000" stroke-width="0.95993" stroke-miterlimit="10" stroke-linecap="round" stroke-linejoin="round" d="
				M427.88808,235.07156C427.88808,233.94494,426.97481,233.03163,425.84823,233.03163C424.72165,233.03163,423.80838,233.94494
				,423.80838,235.07156C423.80838,236.19818,424.72165,237.11148,425.84823,237.11148C426.97481,237.11148,427.88808,236.19818
				,427.88808,235.07156z"/>
			<path clip-path="url(#SVG_CP_1)" fill="#8F000E" fill-rule="evenodd" stroke="#000000" stroke-width="0.95993" stroke-miterlimit="10" stroke-linecap="round" stroke-linejoin="round" d="
				M437.48736,298.90927C437.48736,297.78264,436.57409,296.86934,435.44751,296.86934C434.32094,296.86934,433.40767,297.78264
				,433.40767,298.90927C433.40767,300.03589,434.32094,300.94919,435.44751,300.94919C436.57409,300.94919,437.48736,300.03589
				,437.48736,298.90927z"/>
			<path clip-path="url(#SVG_CP_1)" fill="#8F000E" fill-rule="evenodd" stroke="#000000" stroke-width="0.95993" stroke-miterlimit="10" stroke-linecap="round" stroke-linejoin="round" d="
				M417.56885,334.90797C417.56885,333.78135,416.65558,332.86805,415.529,332.86805C414.40242,332.86805,413.48915,333.78135,413.48915,334.90797
				C413.48915,336.03459,414.40242,336.9479,415.529,336.9479C416.65558,336.9479,417.56885,336.03459,417.56885,334.90797z"/>
			<path clip-path="url(#SVG_CP_1)" fill="#8F000E" fill-rule="evenodd" stroke="#000000" stroke-width="0.95993" stroke-miterlimit="10" stroke-linecap="round" stroke-linejoin="round" d="
				M421.88853,412.1852C421.88853,411.05858,420.97526,410.14527,419.84868,410.14527C418.7221,410.14527,417.80883,411.05858,417.80883,412.1852
				C417.80883,413.31182,418.7221,414.22512,419.84868,414.22512C420.97526,414.22512,421.88853,413.31182,421.88853,412.1852z"/>
			<path clip-path="url(#SVG_CP_1)" fill="#8F000E" fill-rule="evenodd" stroke="#000000" stroke-width="0.95993" stroke-miterlimit="10" stroke-linecap="round" stroke-linejoin="round" d="
				M346.53415,416.74503C346.53415,415.61841,345.62088,414.70511,344.4943,414.70511C343.36772,414.70511,342.45445,415.61841,
				342.45445,416.74503C342.45445,417.87165,343.36772,418.78496,344.4943,418.78496C345.62088,418.78496,346.53415,417.87165,346.53415,416.74503
				z"/>
			<path clip-path="url(#SVG_CP_1)" fill="#8F000E" fill-rule="evenodd" stroke="#000000" stroke-width="0.95993" stroke-miterlimit="10" stroke-linecap="round" stroke-linejoin="round" d="
				M377.49184,458.98352C377.49184,457.8569,376.57857,456.94359,375.45199,456.94359C374.32541,456.94359,373.41214,457.8569,373.41214,458.98352
				C373.41214,460.11014,374.32541,461.02344,375.45199,461.02344C376.57857,461.02344,377.49184,460.11014,377.49184,458.98352
				z"/>
			<path clip-path="url(#SVG_CP_1)" fill="#8F000E" fill-rule="evenodd" stroke="#000000" stroke-width="0.95993" stroke-miterlimit="10" stroke-linecap="round" stroke-linejoin="round" d="
				M282.21895,297.46932C282.21895,296.3427,281.30568,295.42939,280.1791,295.42939C279.05252,295.42939,278.13925,296.3427,278.13925,297.46932
				C278.13925,298.59594,279.05252,299.50924,280.1791,299.50924C281.30568,299.50924,282.21895,298.59594,282.21895,297.46932z
				"/>
			<path clip-path="url(#SVG_CP_1)" fill="#8F000E" fill-rule="evenodd" stroke="#000000" stroke-width="0.95993" stroke-miterlimit="10" stroke-linecap="round" stroke-linejoin="round" d="
				M319.17619,314.02872C319.17619,312.9021,318.26292,311.9888,317.13634,311.9888C316.00976,311.9888,315.09649,312.9021,315.09649,314.02872
				C315.09649,315.15534,316.00976,316.06865,317.13634,316.06865C318.26292,316.06865,319.17619,315.15534,319.17619,314.02872
				z"/>
			<path clip-path="url(#SVG_CP_1)" fill="#8F000E" fill-rule="evenodd" stroke="#000000" stroke-width="0.95993" stroke-miterlimit="10" stroke-linecap="round" stroke-linejoin="round" d="
				M322.29596,359.38709C322.29596,358.26047,321.38269,357.34717,320.25611,357.34717C319.12953,357.34717,318.21626,358.26047
				,318.21626,359.38709C318.21626,360.51371,319.12953,361.42702,320.25611,361.42702C321.38269,361.42702,322.29596,360.51371
				,322.29596,359.38709z"/>
			<path clip-path="url(#SVG_CP_1)" fill="#8F000E" fill-rule="evenodd" stroke="#000000" stroke-width="0.95993" stroke-miterlimit="10" stroke-linecap="round" stroke-linejoin="round" d="
				M261.3405,382.90625C261.3405,381.77963,260.42723,380.86632,259.30066,380.86632C258.17408,380.86632,257.26081,381.77963,257.26081,382.90625
				C257.26081,384.03287,258.17408,384.94618,259.30066,384.94618C260.42723,384.94618,261.3405,384.03287,261.3405,382.90625z"/>
			<path clip-path="url(#SVG_CP_1)" fill="#8F000E" fill-rule="evenodd" stroke="#000000" stroke-width="0.95993" stroke-miterlimit="10" stroke-linecap="round" stroke-linejoin="round" d="
				M85.19364,312.58877C85.19364,311.46215,84.28037,310.54885,83.1538,310.54885C82.02722,310.54885,81.11395,311.46215,81.11395,312.58877
				C81.11395,313.71539,82.02722,314.6287,83.1538,314.6287C84.28037,314.6287,85.19364,313.71539,85.19364,312.58877z"/>
			<path clip-path="url(#SVG_CP_1)" fill="#8F000E" fill-rule="evenodd" stroke="#000000" stroke-width="0.95993" stroke-miterlimit="10" stroke-linecap="round" stroke-linejoin="round" d="
				M356.37341,242.51129C356.37341,241.38467,355.46014,240.47136,354.33357,240.47136C353.20699,240.47136,352.29372,241.38467
				,352.29372,242.51129C352.29372,243.63791,353.20699,244.55122,354.33357,244.55122C355.46014,244.55122,356.37341,243.63791
				,356.37341,242.51129z"/>
			<path clip-path="url(#SVG_CP_1)" fill="#8F000E" fill-rule="evenodd" stroke="#000000" stroke-width="0.95993" stroke-miterlimit="10" stroke-linecap="round" stroke-linejoin="round" d="
				M277.17932,215.15227C277.17932,214.02565,276.26605,213.11235,275.13947,213.11235C274.0129,213.11235,273.09963,214.02565,
				273.09963,215.15227C273.09963,216.27889,274.0129,217.1922,275.13947,217.1922C276.26605,217.1922,277.17932,216.27889,277.17932,215.15227
				z"/>
			<path clip-path="url(#SVG_CP_1)" fill="#8F000E" fill-rule="evenodd" stroke="#000000" stroke-width="0.95993" stroke-miterlimit="10" stroke-linecap="round" stroke-linejoin="round" d="
				M247.42154,206.99257C247.42154,205.86595,246.50827,204.95264,245.38169,204.95264C244.25512,204.95264,243.34185,205.86595
				,243.34185,206.99257C243.34185,208.11919,244.25512,209.03249,245.38169,209.03249C246.50827,209.03249,247.42154,208.11919
				,247.42154,206.99257z"/>
			<path clip-path="url(#SVG_CP_1)" fill="#8F000E" fill-rule="evenodd" stroke="#000000" stroke-width="0.95993" stroke-miterlimit="10" stroke-linecap="round" stroke-linejoin="round" d="
				M315.57646,178.67358C315.57646,177.54696,314.66319,176.63366,313.53661,176.63366C312.41003,176.63366,311.49676,177.54696
				,311.49676,178.67358C311.49676,179.8002,312.41003,180.71351,313.53661,180.71351C314.66319,180.71351,315.57646,179.8002,315.57646,178.67358
				z"/>
			<path clip-path="url(#SVG_CP_1)" fill="#8F000E" fill-rule="evenodd" stroke="#000000" stroke-width="0.95993" stroke-miterlimit="10" stroke-linecap="round" stroke-linejoin="round" d="
				M31.67764,97.5565C31.67764,96.42988,30.76437,95.51657,29.63779,95.51657C28.51121,95.51657,27.59794,96.42988,27.59794,97.5565
				C27.59794,98.68312,28.51121,99.59642,29.63779,99.59642C30.76437,99.59642,31.67764,98.68312,31.67764,97.5565z"/>
			<path clip-path="url(#SVG_CP_1)" fill="#8F000E" fill-rule="evenodd" stroke="#000000" stroke-width="0.95993" stroke-miterlimit="10" stroke-linecap="round" stroke-linejoin="round" d="
				M547.39916,382.66626C547.39916,381.53964,546.48589,380.62633,545.35931,380.62633C544.23274,380.62633,543.31947,381.53964
				,543.31947,382.66626C543.31947,383.79288,544.23274,384.70618,545.35931,384.70618C546.48589,384.70618,547.39916,383.79288
				,547.39916,382.66626z"/>
			<path clip-path="url(#SVG_CP_1)" fill="#8F000E" fill-rule="evenodd" stroke="#000000" stroke-width="0.95993" stroke-miterlimit="10" stroke-linecap="round" stroke-linejoin="round" d="
				M426.2082,426.1047C426.2082,424.97808,425.29493,424.06477,424.16836,424.06477C423.04178,424.06477,422.12851,424.97808,422.12851,426.1047
				C422.12851,427.23132,423.04178,428.14462,424.16836,428.14462C425.29493,428.14462,426.2082,427.23132,426.2082,426.1047z"/>
			<path clip-path="url(#SVG_CP_1)" fill="#8F000E" fill-rule="evenodd" stroke="#000000" stroke-width="0.95993" stroke-miterlimit="10" stroke-linecap="round" stroke-linejoin="round" d="
				M435.56751,424.90474C435.56751,423.77812,434.65423,422.86481,433.52766,422.86481C432.40108,422.86481,431.48781,423.77812
				,431.48781,424.90474C431.48781,426.03136,432.40108,426.94467,433.52766,426.94467C434.65423,426.94467,435.56751,426.03136
				,435.56751,424.90474z"/>
		</g>
	</g>
</svg>
