<?xml version="1.0" encoding="utf-8" standalone="no"?>
<!DOCTYPE svg PUBLIC "-//W3C//DTD SVG 1.1//EN" "http://www.w3.org/Graphics/SVG/1.1/DTD/svg11-flat-20030114.dtd">
<!-- Created by SVGDeveloper 1.0 -->
<svg width="32" height="32" version="1.1" xmlns="http://www.w3.org/2000/svg" xmlns:xlink="http://www.w3.org/1999/xlink">
<g transform="matrix(1,0,0,1,-133,0)" xmlns="http://www.w3.org/2000/svg">
<linearGradient id="SVGID_1_" gradientUnits="userSpaceOnUse" x1="147.936" y1="26.4854" x2="147.936" y2="4.6128">
<stop offset="0" style="stop-color:#E2ECF1" />
<stop offset="0.6848" style="stop-color:#EBF0F1" />
</linearGradient>
<path fill="url(#SVGID_1_)" d="M145.899,6.836l0.015,0.02c0-0.001,0-0.001-0.003-0.004l-1.186-1.801&#xD;
		c-0.295-0.449-0.903-0.574-1.352-0.278l-2.696,1.777c-0.447,0.296-0.572,0.903-0.277,1.35l1.178,1.786L145.899,6.836z&#xD;
		 M150.427,23.12l4.333-2.855l-8.087-12.252l-4.317,2.847L150.427,23.12z M146.1,9.859c0.085-0.056,0.183-0.084,0.283-0.084&#xD;
		c0.173,0,0.334,0.085,0.431,0.23l6.03,9.18c0.076,0.113,0.103,0.249,0.076,0.383c-0.027,0.134-0.107,0.251-0.221,0.328&#xD;
		c-0.07,0.045-0.148,0.074-0.232,0.083h-0.002l-0.048,0.003c-0.174,0-0.336-0.088-0.431-0.232l-6.031-9.178&#xD;
		C145.799,10.334,145.864,10.016,146.1,9.859z M151.526,25.487h-9.863c-0.276,0-0.499,0.223-0.499,0.5&#xD;
		c0,0.275,0.222,0.499,0.499,0.499h9.863c0.275,0,0.5-0.223,0.5-0.499C152.025,25.71,151.801,25.487,151.526,25.487z&#xD;
		 M155.616,25.829l-0.582-3.767l-3.083,2.031l3.247,2.013C155.501,26.312,155.69,26.19,155.616,25.829z" />
<radialGradient id="SVGID_2_" cx="147.936" cy="14.8418" r="9.4562" gradientUnits="userSpaceOnUse">
<stop offset="0" style="stop-color:#262423" />
<stop offset="0.4602" style="stop-color:#242322" />
<stop offset="0.6558" style="stop-color:#201F1E" />
<stop offset="0.801" style="stop-color:#171717" />
<stop offset="0.9208" style="stop-color:#0C0C0C" />
<stop offset="1" style="stop-color:#040000" />
</radialGradient>
<path fill="url(#SVGID_2_)" d="M145.899,6.129l0.015,0.021c0-0.001,0-0.001-0.003-0.004l-1.186-1.801&#xD;
		c-0.295-0.449-0.903-0.574-1.352-0.278l-2.696,1.777c-0.447,0.296-0.572,0.903-0.277,1.35l1.178,1.786L145.899,6.129z&#xD;
		 M150.427,22.413l4.333-2.855l-8.087-12.252l-4.317,2.847L150.427,22.413z M146.1,9.152c0.085-0.055,0.183-0.084,0.283-0.084&#xD;
		c0.173,0,0.334,0.085,0.431,0.229l6.03,9.18c0.076,0.113,0.103,0.249,0.076,0.383c-0.027,0.134-0.107,0.251-0.221,0.329&#xD;
		c-0.07,0.045-0.148,0.074-0.232,0.082h-0.002l-0.048,0.003c-0.174,0-0.336-0.088-0.431-0.232l-6.031-9.178&#xD;
		C145.799,9.627,145.864,9.309,146.1,9.152z M151.526,24.781h-9.863c-0.276,0-0.499,0.223-0.499,0.5&#xD;
		c0,0.275,0.222,0.498,0.499,0.498h9.863c0.275,0,0.5-0.223,0.5-0.498C152.025,25.004,151.801,24.781,151.526,24.781z&#xD;
		 M155.616,25.122l-0.582-3.767l-3.083,2.031l3.247,2.012C155.501,25.605,155.69,25.483,155.616,25.122z" />
</g>
</svg>